<?xml version="1.0" standalone="no"?>
<!DOCTYPE svg PUBLIC "-//W3C//DTD SVG 20010904//EN"
 "http://www.w3.org/TR/2001/REC-SVG-20010904/DTD/svg10.dtd">
<svg version="1.0" xmlns="http://www.w3.org/2000/svg"
 width="1280.000000pt" height="886.000000pt" viewBox="0 0 1280.000000 886.000000"
 preserveAspectRatio="xMidYMid meet">
<g transform="translate(0.000000,886.000000) scale(0.100000,-0.100000)"
fill="#000000" stroke="none">
<path d="M5645 8456 c-612 -321 -3646 -1908 -5247 -2746 -203 -105 -368 -195
-368 -198 0 -4 512 -277 1138 -606 625 -330 2056 -1085 3180 -1678 1124 -593
2047 -1078 2052 -1078 5 0 328 168 717 374 1050 554 4219 2226 4985 2630 367
193 666 355 665 359 -1 4 -936 496 -2077 1093 -1141 597 -2573 1346 -3182
1665 -609 318 -1108 579 -1110 579 -2 -1 -340 -178 -753 -394z"/>
<path d="M920 3298 l1 -1553 127 250 c70 137 132 251 139 253 7 2 61 -95 135
-242 68 -135 126 -246 130 -246 5 0 7 633 6 1406 l-3 1407 -260 138 c-143 76
-263 138 -267 139 -5 0 -8 -699 -8 -1552z"/>
<path d="M2686 3923 c-3 -4 -6 -578 -6 -1277 0 -1372 -1 -1331 53 -1466 150
-371 622 -678 1368 -890 468 -133 1064 -226 1649 -260 107 -6 259 -15 336 -20
181 -13 437 -13 618 0 77 5 222 14 321 20 793 48 1555 197 2090 411 342 136
565 270 745 449 112 110 179 212 224 338 l31 87 0 445 c0 1223 -6 2160 -14
2160 -4 0 -835 -436 -1846 -970 -1012 -533 -1846 -970 -1855 -970 -12 0 -3086
1615 -3626 1905 -45 24 -85 41 -88 38z"/>
</g>
</svg>
