<?xml version="1.0" standalone="no"?>
<!DOCTYPE svg PUBLIC "-//W3C//DTD SVG 20010904//EN"
 "http://www.w3.org/TR/2001/REC-SVG-20010904/DTD/svg10.dtd">
<svg version="1.0" xmlns="http://www.w3.org/2000/svg"
 width="500.000000pt" height="98.000000pt" viewBox="0 0 500.000000 98.000000"
 preserveAspectRatio="xMidYMid meet">

<g transform="translate(0.000000,98.000000) scale(0.100000,-0.100000)"
fill="#000000" stroke="none">
<path d="M20 490 l0 -490 2480 0 2480 0 0 490 0 490 -2480 0 -2480 0 0 -490z
m1108 173 c46 -29 48 -53 13 -179 -18 -63 -31 -129 -29 -147 l3 -32 -84 -3
c-111 -4 -120 0 -87 39 14 17 26 42 26 55 0 23 -3 25 -41 22 -48 -2 -62 -22
-57 -76 l3 -37 -67 -3 c-79 -3 -89 11 -37 49 23 16 49 59 95 154 35 73 73 140
84 150 39 35 128 39 178 8z m3064 6 c14 -6 32 -24 39 -41 11 -27 8 -44 -23
-152 -24 -84 -32 -126 -26 -139 5 -9 6 -22 3 -27 -8 -12 -182 -13 -189 -1 -3
4 3 16 14 26 21 19 42 70 33 79 -4 3 -24 6 -45 6 -33 0 -40 -4 -52 -32 -8 -22
-10 -39 -4 -51 15 -29 0 -37 -68 -37 -74 0 -82 13 -33 49 21 16 50 62 94 154
35 73 72 141 84 151 38 34 106 40 173 15z m-3487 -3 c38 -16 55 -42 55 -84 0
-34 -31 -78 -61 -87 -21 -7 -21 -7 1 -22 19 -13 21 -21 15 -58 -5 -36 -3 -45
12 -54 48 -27 -52 -81 -114 -60 -42 14 -56 44 -42 94 13 47 6 65 -25 65 -21 0
-27 -8 -40 -51 -13 -45 -13 -55 0 -74 8 -12 11 -25 7 -28 -8 -9 -188 -9 -196
0 -4 3 1 16 12 27 24 27 94 272 87 307 -3 15 -2 29 1 33 13 13 253 6 288 -8z
m771 -5 c29 -18 31 -18 53 0 13 11 31 19 41 19 33 0 39 -22 21 -80 -22 -71
-49 -79 -93 -26 -53 64 -109 41 -142 -57 -28 -82 -15 -147 29 -147 41 0 61 71
25 90 -11 6 -20 17 -20 25 0 12 19 15 105 15 86 0 105 -3 105 -15 0 -8 -10
-21 -23 -30 -15 -9 -28 -33 -36 -67 -8 -29 -18 -61 -23 -70 -12 -25 -64 -24
-80 1 -12 19 -12 19 -39 0 -18 -13 -44 -19 -77 -19 -113 0 -163 108 -112 243
33 87 99 136 185 137 32 0 61 -7 81 -19z m379 8 c4 -6 -2 -20 -13 -32 -23 -26
-74 -198 -70 -236 2 -20 9 -27 31 -29 49 -6 57 8 111 190 28 93 49 118 98 118
61 0 77 -96 19 -120 -15 -6 -33 -10 -40 -8 -8 2 -21 -26 -35 -72 -43 -149 -83
-183 -203 -178 -128 6 -149 55 -98 232 14 48 23 96 20 107 -4 10 -3 23 0 29 8
14 172 13 180 -1z m430 0 c4 -6 -2 -20 -13 -32 -19 -21 -98 -274 -88 -284 12
-12 65 11 85 37 28 39 64 62 85 54 19 -7 20 -24 6 -76 -19 -66 -23 -68 -201
-68 -99 0 -159 4 -159 10 0 6 8 18 18 28 23 23 96 275 87 302 -3 11 -3 24 0
30 8 14 172 13 180 -1z m492 -15 c43 -32 50 -65 27 -121 -25 -62 -66 -85 -158
-92 l-71 -6 -13 -39 c-10 -33 -10 -42 2 -61 8 -13 12 -25 9 -29 -4 -3 -48 -6
-99 -6 -94 0 -121 10 -89 34 21 15 97 273 90 304 -3 13 -3 28 1 33 4 7 55 9
139 7 117 -3 137 -6 162 -24z m373 10 c22 -9 45 -25 50 -35 25 -46 1 -111 -46
-129 l-24 -10 20 -20 c16 -16 19 -28 14 -60 -5 -31 -3 -41 10 -46 39 -15 -2
-60 -59 -65 -57 -4 -75 1 -91 26 -13 21 -15 33 -6 66 13 53 6 71 -27 67 -22
-3 -28 -11 -40 -56 -13 -47 -12 -54 3 -70 9 -10 13 -22 9 -25 -3 -4 -48 -7
-99 -7 -96 0 -123 11 -90 36 22 16 98 270 91 302 -3 13 -3 27 0 32 11 17 240
12 285 -6z m330 4 c0 -6 -8 -21 -18 -32 -25 -28 -92 -273 -85 -308 l5 -28 -89
0 c-49 0 -93 3 -96 7 -4 3 1 16 12 27 24 27 94 272 87 307 -3 15 -2 29 1 33
12 12 183 7 183 -6z m235 2 c4 -6 1 -17 -5 -25 -9 -11 -9 -26 1 -65 7 -27 16
-50 20 -50 3 0 29 31 57 70 66 90 119 106 152 47 13 -24 13 -30 -1 -55 -13
-23 -21 -27 -61 -27 -45 0 -48 -2 -88 -54 -22 -30 -48 -79 -57 -108 -15 -49
-15 -54 0 -71 9 -10 14 -22 10 -25 -11 -12 -191 -8 -198 4 -4 6 2 19 12 29 11
10 26 39 33 65 12 42 11 53 -11 123 -13 42 -34 89 -47 104 -13 15 -21 32 -17
38 8 13 192 13 200 0z m727 -7 c9 -10 35 -56 58 -103 l43 -85 19 65 c10 36 17
81 16 100 l-3 35 49 3 c60 4 81 -12 49 -36 -15 -12 -32 -54 -58 -152 -50 -181
-56 -192 -103 -188 -36 3 -38 5 -94 116 l-57 112 -21 -72 c-12 -40 -24 -81
-26 -91 -3 -10 0 -24 6 -32 20 -24 2 -35 -56 -35 -59 0 -67 10 -36 44 25 28
85 240 84 294 l-2 42 59 0 c43 0 62 -5 73 -17z"/>
<path d="M978 593 c-13 -15 -58 -108 -58 -119 0 -2 17 -4 38 -4 37 0 37 0 55
61 10 33 15 64 12 70 -9 14 -30 11 -47 -8z"/>
<path d="M4047 593 c-13 -16 -57 -106 -57 -119 0 -3 16 -4 37 -2 34 3 37 6 55
58 10 30 16 60 13 67 -6 18 -29 16 -48 -4z"/>
<path d="M551 576 c-15 -59 -15 -58 16 -54 55 6 68 88 16 96 -17 2 -22 -5 -32
-42z"/>
<path d="M2625 618 c-10 -26 -35 -113 -35 -120 0 -16 48 -7 64 11 24 26 34
100 15 112 -20 12 -39 11 -44 -3z"/>
<path d="M3001 583 c-16 -55 -14 -63 15 -63 19 0 28 8 40 36 12 28 12 39 3 50
-22 27 -47 16 -58 -23z"/>
</g>
</svg>
